<?xml version="1.0" standalone="no"?>
<!DOCTYPE svg PUBLIC "-//W3C//DTD SVG 20010904//EN"
 "http://www.w3.org/TR/2001/REC-SVG-20010904/DTD/svg10.dtd">
<svg version="1.0" xmlns="http://www.w3.org/2000/svg"
 width="700.000000pt" height="700.000000pt" viewBox="0 0 700.000000 700.000000"
 preserveAspectRatio="xMidYMid meet">
<metadata>
Created by potrace 1.14, written by Peter Selinger 2001-2017
</metadata>
<g transform="translate(0.000000,700.000000) scale(0.100000,-0.100000)"
fill="#000000" stroke="none">
<path d="M3278 6996 c-1 -2 -42 -6 -89 -10 -47 -4 -95 -8 -105 -10 -10 -2 -45
-7 -78 -11 -75 -9 -228 -38 -318 -61 -26 -6 -48 -11 -99 -23 -222 -51 -652
-234 -894 -380 -43 -26 -242 -158 -259 -172 -6 -5 -49 -39 -96 -75 -175 -137
-394 -347 -516 -495 -65 -79 -168 -215 -216 -284 -138 -202 -294 -498 -373
-710 -20 -55 -41 -109 -45 -120 -43 -99 -133 -467 -155 -635 -18 -129 -24
-190 -30 -300 l-5 -85 3500 0 3500 0 -5 95 c-5 95 -12 169 -21 225 -2 17 -6
44 -8 60 -2 17 -11 78 -22 138 l-18 107 -711 0 -711 0 0 125 0 125 251 0 251
0 -1 123 -1 122 -500 3 -501 2 0 125 0 125 376 2 375 3 0 120 0 120 -125 5
-125 5 0 120 0 120 -251 3 -251 2 2 123 1 122 123 3 c118 3 122 3 123 25 1 26
1 209 0 220 -1 4 -114 7 -251 7 l-250 0 1 125 0 125 127 0 127 0 -1 201 c-1
110 -5 204 -10 209 -17 16 -238 107 -374 153 -222 76 -492 137 -710 162 -30 4
-68 9 -85 11 -34 5 -541 14 -547 10z m-858 -760 c104 -23 134 -32 200 -59 544
-222 784 -852 523 -1372 -137 -271 -371 -456 -673 -530 -91 -22 -296 -28 -392
-10 -372 67 -666 324 -783 682 -25 77 -28 89 -40 173 -9 59 -9 214 -1 268 11
67 44 193 62 232 73 159 134 249 241 351 146 140 324 231 517 263 78 13 291
14 346 2z"/>
<path d="M4 3368 c-4 -6 2 -123 11 -208 14 -129 25 -207 45 -315 70 -371 221
-780 404 -1088 25 -43 46 -80 46 -83 0 -10 232 -340 249 -354 4 -3 25 -27 46
-55 119 -148 348 -373 510 -501 28 -21 52 -41 55 -44 12 -12 270 -190 275
-190 3 0 28 -15 57 -34 112 -71 314 -170 533 -261 82 -35 331 -112 450 -140
90 -21 238 -49 324 -61 25 -3 57 -8 71 -10 163 -25 707 -25 843 2 12 2 39 6
62 9 91 13 124 19 208 35 l57 11 0 85 0 84 -125 0 -125 0 1 125 0 125 375 0
374 0 1 48 c0 26 0 82 0 124 l1 78 124 0 c92 0 124 3 125 13 0 6 1 63 1 124
l1 113 376 2 376 3 -1 122 -1 122 126 3 126 3 0 120 0 120 -250 5 -250 5 -1
110 c-1 61 -2 116 -3 123 -1 9 -83 12 -375 12 l-375 0 0 125 -1 125 250 0
c193 0 250 3 251 13 1 6 1 63 1 124 l1 113 501 2 501 3 0 120 0 120 -250 5
-250 5 -1 120 0 120 585 5 584 5 13 55 c6 30 15 75 18 100 3 25 8 54 10 65 2
11 7 47 10 80 4 33 9 74 11 90 2 17 7 74 10 128 6 89 5 97 -12 98 -79 5 -6976
2 -6979 -3z"/>
</g>
</svg>
